HIERARCHY
ROOT Hips
{
	OFFSET 0.000000 0.000000 0.000000
	CHANNELS 6 Xposition Yposition Zposition Xrotation Yrotation Zrotation
	JOINT LeftUpLeg_virtual
	{
		OFFSET 0.000000 0.000000 0.000000
		CHANNELS 3 Xrotation Yrotation Zrotation
		JOINT LeftUpLeg
		{
			OFFSET 10.205400 -3.823500 0.155100
			CHANNELS 3 Xrotation Yrotation Zrotation
			JOINT LeftLeg
			{
				OFFSET 0.708757 -12.982077 0.567790
				CHANNELS 3 Xrotation Yrotation Zrotation
				JOINT LeftFoot
				{
					OFFSET -0.708756 -10.717838 -2.184338
					CHANNELS 3 Xrotation Yrotation Zrotation
					JOINT LeftToeBase
					{
						OFFSET 0.108149 -7.191104 7.560241
						CHANNELS 3 Xrotation Yrotation Zrotation
						JOINT LeftToe_End
						{
							OFFSET 0.070230 0.081724 4.490308
							CHANNELS 3 Xrotation Yrotation Zrotation
							End Site
							{
								OFFSET 0 0 0
							}
						}
					}
				}
			}
		}
	}
	JOINT RightUpLeg_virtual
	{
		OFFSET 0.000000 0.000000 0.000000
		CHANNELS 3 Xrotation Yrotation Zrotation
		JOINT RightUpLeg
		{
			OFFSET -10.205400 -3.823500 0.005500
			CHANNELS 3 Xrotation Yrotation Zrotation
			JOINT RightLeg
			{
				OFFSET -0.708756 -12.982134 0.610632
				CHANNELS 3 Xrotation Yrotation Zrotation
				JOINT RightFoot
				{
					OFFSET 0.708754 -10.717769 -1.945823
					CHANNELS 3 Xrotation Yrotation Zrotation
					JOINT RightToeBase
					{
						OFFSET -0.108140 -7.191069 7.372968
						CHANNELS 3 Xrotation Yrotation Zrotation
						JOINT RightToe_End
						{
							OFFSET -0.070227 0.081735 4.479403
							CHANNELS 3 Xrotation Yrotation Zrotation
							End Site
							{
								OFFSET 0 0 0
							}
						}
					}
				}
			}
		}
	}
	JOINT Spine_virtual
	{
		OFFSET 0.000000 0.000000 0.000000
		CHANNELS 3 Xrotation Yrotation Zrotation
		JOINT Spine
		{
			OFFSET 0.000000 6.876099 0.125700
			CHANNELS 3 Xrotation Yrotation Zrotation
			JOINT Spine1
			{
				OFFSET 0.000000 5.730043 0.104720
				CHANNELS 3 Xrotation Yrotation Zrotation
				JOINT Spine1_split
				{
					OFFSET 0.000000 5.730043 0.104720
					CHANNELS 3 Xrotation Yrotation Zrotation
					JOINT Spine2
					{
						OFFSET 0.000000 5.730043 0.104720
						CHANNELS 3 Xrotation Yrotation Zrotation
						JOINT Neck_virtual
						{
							OFFSET 0.000000 0.000000 0.000000
							CHANNELS 3 Xrotation Yrotation Zrotation
							JOINT Neck
							{
								OFFSET 0.000000 10.314075 0.188496
								CHANNELS 3 Xrotation Yrotation Zrotation
								JOINT Head
								{
									OFFSET 0.000000 7.643700 -2.377400
									CHANNELS 3 Xrotation Yrotation Zrotation
									JOINT HeadTop_End
									{
										OFFSET 0.000000 43.788605 -13.619600
										CHANNELS 3 Xrotation Yrotation Zrotation
										End Site
										{
											OFFSET 0 0 0
										}
									}
								}
							}
						}
						JOINT LeftShoulder_virtual
						{
							OFFSET 0.000000 0.000000 0.000000
							CHANNELS 3 Xrotation Yrotation Zrotation
							JOINT LeftShoulder
							{
								OFFSET 2.196100 4.412489 0.087492
								CHANNELS 3 Xrotation Yrotation Zrotation
								JOINT LeftShoulder_split
								{
									OFFSET 2.196100 4.412489 0.087492
									CHANNELS 3 Xrotation Yrotation Zrotation
									JOINT LeftArm
									{
										OFFSET 8.771219 -2.981674 -0.026999
										CHANNELS 3 Xrotation Yrotation Zrotation
										JOINT LeftForeArm
										{
											OFFSET 8.512804 0.000000 -0.000000
											CHANNELS 3 Xrotation Yrotation Zrotation
											JOINT LeftHand
											{
												OFFSET 18.484802 0.000000 -0.000000
												CHANNELS 3 Xrotation Yrotation Zrotation
												End Site
												{
													OFFSET 0 0 0
												}
											}
										}
									}
								}
							}
						}
						JOINT RightShoulder_virtual
						{
							OFFSET 0.000000 0.000000 0.000000
							CHANNELS 3 Xrotation Yrotation Zrotation
							JOINT RightShoulder
							{
								OFFSET -2.196100 4.412496 0.070690
								CHANNELS 3 Xrotation Yrotation Zrotation
								JOINT RightShoulder_split
								{
									OFFSET -2.196100 4.412496 0.070690
									CHANNELS 3 Xrotation Yrotation Zrotation
									JOINT RightArm
									{
										OFFSET -8.771282 -2.981682 -0.094208
										CHANNELS 3 Xrotation Yrotation Zrotation
										JOINT RightForeArm
										{
											OFFSET -8.494598 0.000000 0.000000
											CHANNELS 3 Xrotation Yrotation Zrotation
											JOINT RightHand
											{
												OFFSET -18.483803 0.000000 0.000001
												CHANNELS 3 Xrotation Yrotation Zrotation
												End Site
												{
													OFFSET 0 0 0
												}
											}
										}
									}
								}
							}
						}
					}
				}
			}
		}
	}
}
MOTION
Frames: 5
Frame Time: 0.03333333
-2.795307 26.353889 1.100918 0.000000 0.000000 0.000000 4.194889 -40.607630 11.094099 -60.426677 23.191166 44.526095 43.821005 -29.530613 2.352330 5.799784 1.204776 -21.126923 -0.941350 -6.111094 0.982353 0.000000 0.000000 0.000000 4.194889 -40.607630 11.094099 -8.066775 -6.953203 -44.714984 59.149643 11.252174 -5.389645 -51.015636 -18.220252 30.518163 0.528342 2.970082 1.471421 0.000000 0.000000 0.000000 4.194889 -40.607630 11.094099 17.687757 -5.873003 2.855351 28.357212 -3.983567 -2.018755 0.000000 0.000000 0.000000 0.000000 0.000000 0.000000 17.259832 -2.365353 -3.582328 3.399024 0.434952 18.470303 8.197277 1.394242 -12.300076 0.000000 0.000000 0.000000 17.259832 -2.365353 -3.582328 2.328549 -30.676866 2.585231 0.000000 0.000000 0.000000 -33.628839 -25.347563 -29.746522 -7.805139 -23.996582 1.221980 0.000000 0.000000 0.000000 17.259832 -2.365353 -3.582328 -0.608448 13.107893 25.085210 0.000000 0.000000 0.000000 -20.872672 -20.553229 19.261029 -11.667245 82.321333 10.693739 0.000000 0.000000 0.000000 
-2.543850 26.460243 1.077559 0.000000 0.000000 0.000000 1.904065 -39.038923 8.697626 -61.394672 22.800935 44.416809 44.381162 -29.540169 2.472862 7.052758 -0.713061 -19.532756 -0.941352 -6.111095 0.982353 0.000000 0.000000 0.000000 1.904065 -39.038923 8.697626 -4.644483 -9.315984 -43.282745 56.104133 10.273018 -5.261946 -49.528792 -18.637109 31.163851 0.528346 2.970080 1.471423 0.000000 0.000000 0.000000 1.904065 -39.038923 8.697626 17.253360 -5.471098 2.940261 27.212097 -3.554412 -1.949090 0.000000 0.000000 0.000000 0.000000 0.000000 0.000000 16.129913 -2.065774 -3.134685 1.254568 1.689158 17.729136 7.834703 0.608331 -11.472230 0.000000 0.000000 0.000000 16.129913 -2.065774 -3.134685 2.180199 -30.084678 2.687291 0.000000 0.000000 0.000000 -32.508941 -24.092779 -31.048148 -8.013976 -21.085964 0.699052 0.000000 0.000000 0.000000 16.129913 -2.065774 -3.134685 -0.531446 12.423671 23.593273 0.000000 0.000000 0.000000 -19.558411 -22.044763 20.084130 3.473228 83.560288 -3.939849 0.000000 0.000000 0.000000 
-2.287197 26.538212 1.068642 0.000000 0.000000 0.000000 0.421047 -37.311093 6.913231 -62.883871 22.434508 44.114252 44.997624 -29.476528 2.600403 8.382835 -2.562360 -17.846528 -0.941353 -6.111091 0.982352 0.000000 0.000000 0.000000 0.421047 -37.311093 6.913231 -1.583740 -11.358256 -41.713994 53.089042 9.214262 -5.134796 -47.979620 -19.217200 31.857713 0.528349 2.970078 1.471422 0.000000 0.000000 0.000000 0.421047 -37.311093 6.913231 16.667052 -4.959840 2.952171 25.694743 -3.058028 -1.812175 0.000000 0.000000 0.000000 0.000000 0.000000 0.000000 14.600545 -1.729658 -2.630743 -1.047853 2.501034 15.709573 6.691301 -0.589651 -9.645279 0.000000 0.000000 0.000000 14.600545 -1.729658 -2.630743 2.003524 -29.369752 2.652537 0.000000 0.000000 0.000000 -32.151384 -23.761171 -32.868028 -7.911225 -17.129740 0.318800 0.000000 0.000000 0.000000 14.600545 -1.729658 -2.630743 -0.689617 12.059404 21.568694 0.000000 0.000000 0.000000 -17.317859 -24.231761 21.746180 11.487720 83.685336 -11.686821 0.000000 0.000000 0.000000 
-2.038071 26.618862 1.089939 0.000000 0.000000 0.000000 -0.144153 -36.447184 5.636726 -64.442370 21.888762 44.337381 46.034881 -29.325021 2.731513 8.956378 -3.744261 -16.487013 -0.941353 -6.111091 0.982353 0.000000 0.000000 0.000000 -0.144153 -36.447184 5.636726 -0.012063 -12.303754 -40.316957 50.699763 8.392656 -5.034998 -46.248048 -19.327490 32.504836 0.528345 2.970079 1.471424 0.000000 0.000000 0.000000 -0.144153 -36.447184 5.636726 16.041954 -4.331670 2.854487 23.874131 -2.378891 -1.661042 0.000000 0.000000 0.000000 0.000000 0.000000 0.000000 12.746255 -1.195074 -2.114446 -3.488311 3.043678 13.824498 5.706769 -1.287624 -8.005475 0.000000 0.000000 0.000000 12.746255 -1.195074 -2.114446 1.808328 -28.559738 2.531822 0.000000 0.000000 0.000000 -31.661595 -22.934339 -34.762729 -7.765064 -14.016618 -0.175847 0.000000 0.000000 0.000000 12.746255 -1.195074 -2.114446 -0.998188 12.045933 18.894745 0.000000 0.000000 0.000000 -14.805798 -26.204415 23.853561 8.172508 83.221962 -7.948313 0.000000 0.000000 0.000000 
-1.809789 26.715752 1.132645 0.000000 0.000000 0.000000 -0.243992 -36.723823 4.667867 -65.474842 21.222296 45.186698 47.374998 -29.071040 2.847692 8.570763 -4.166788 -15.663832 -0.941354 -6.111088 0.982353 0.000000 0.000000 0.000000 -0.243992 -36.723823 4.667867 -0.004068 -12.193757 -39.490685 49.189892 8.022647 -4.959716 -44.494383 -18.774015 33.026174 0.528345 2.970078 1.471421 0.000000 0.000000 0.000000 -0.243992 -36.723823 4.667867 15.460762 -3.719543 2.487587 21.959179 -1.638665 -1.746979 0.000000 0.000000 0.000000 0.000000 0.000000 0.000000 10.776223 -0.487444 -1.926383 -6.460402 3.354909 13.787555 6.123669 -0.046064 -7.878034 0.000000 0.000000 0.000000 10.776223 -0.487444 -1.926383 1.535497 -27.653775 2.236978 0.000000 0.000000 0.000000 -29.438085 -19.826977 -35.379553 -7.849066 -15.756384 -1.303372 0.000000 0.000000 0.000000 10.776223 -0.487444 -1.926383 -1.558124 12.888412 17.036896 0.000000 0.000000 0.000000 -13.097043 -27.809523 25.131679 -2.297513 81.906795 3.149639 0.000000 0.000000 0.000000 
